<svg height="100%" viewBox="0 0 24 24" xmlns="http://www.w3.org/2000/svg"><path d="m12 .28a12 12 0 0 0 -3.72 23.41h.29a1 1 0 0 0 1.06-1.06v-.21c0-.17 0-.4 0-1.09a.5.5 0 0 0 -.2-.33.5.5 0 0 0 -.42-.1c-2.68.58-3.25-1.1-3.29-1.21a4.64 4.64 0 0 0 -1.72-2.19 1.16 1.16 0 0 0 -.15-.11.63.63 0 0 1 .38-.07 1.47 1.47 0 0 1 1.15.88 3 3 0 0 0 4 1.16.5.5 0 0 0 .29-.36 2 2 0 0 1 .56-1.23.5.5 0 0 0 -.27-.87c-2.37-.27-4.79-1.1-4.79-5.19a4 4 0 0 1 1.05-2.78.5.5 0 0 0 .09-.53 3.52 3.52 0 0 1 .01-2.4 5.54 5.54 0 0 1 2.52 1.15.49.49 0 0 0 .42.07 10.61 10.61 0 0 1 2.74-.37 10.47 10.47 0 0 1 2.75.37.49.49 0 0 0 .41-.07 5.59 5.59 0 0 1 2.52-1.15 3.57 3.57 0 0 1 0 2.38.5.5 0 0 0 .09.53 4 4 0 0 1 1.05 2.75c0 4.09-2.43 4.91-4.81 5.18a.5.5 0 0 0 -.27.88 2.2 2.2 0 0 1 .61 1.74v3.18a1.06 1.06 0 0 0 .36.83 1.2 1.2 0 0 0 1.06.19 12 12 0 0 0 -3.77-23.38z"/></svg>